<mxfile host="app.diagrams.net" agent="Mozilla/5.0 (Windows NT 10.0; Win64; x64) AppleWebKit/537.36 (KHTML, like Gecko) Chrome/137.0.0.0 Safari/537.36 Edg/137.0.0.0" version="27.1.6">
  <diagram name="第 1 页" id="3aCutq1MNIW2fv6fnXSZ">
    <mxGraphModel dx="2007" dy="1019" grid="0" gridSize="10" guides="1" tooltips="1" connect="1" arrows="1" fold="1" page="1" pageScale="1" pageWidth="827" pageHeight="1169" math="0" shadow="0">
      <root>
        <mxCell id="0" />
        <mxCell id="1" parent="0" />
        <mxCell id="2kTArgQd8L4rqDj1bjID-1" value="应急响应子系统" style="swimlane;childLayout=stackLayout;resizeParent=1;resizeParentMax=0;startSize=20;html=1;" vertex="1" parent="1">
          <mxGeometry x="120" y="60" width="740" height="1000" as="geometry" />
        </mxCell>
        <mxCell id="2kTArgQd8L4rqDj1bjID-2" value="铁路管理局" style="swimlane;startSize=20;html=1;" vertex="1" parent="2kTArgQd8L4rqDj1bjID-1">
          <mxGeometry y="20" width="220" height="980" as="geometry" />
        </mxCell>
        <mxCell id="2kTArgQd8L4rqDj1bjID-52" value="" style="edgeStyle=orthogonalEdgeStyle;rounded=0;orthogonalLoop=1;jettySize=auto;html=1;" edge="1" parent="2kTArgQd8L4rqDj1bjID-2" source="2kTArgQd8L4rqDj1bjID-5" target="2kTArgQd8L4rqDj1bjID-8">
          <mxGeometry relative="1" as="geometry" />
        </mxCell>
        <mxCell id="2kTArgQd8L4rqDj1bjID-5" value="" style="shape=waypoint;sketch=0;fillStyle=solid;size=6;pointerEvents=1;points=[];fillColor=none;resizable=0;rotatable=0;perimeter=centerPerimeter;snapToPoint=1;" vertex="1" parent="2kTArgQd8L4rqDj1bjID-2">
          <mxGeometry x="100" y="50" width="20" height="20" as="geometry" />
        </mxCell>
        <mxCell id="2kTArgQd8L4rqDj1bjID-8" value="接受当前风险信息" style="rounded=1;whiteSpace=wrap;html=1;" vertex="1" parent="2kTArgQd8L4rqDj1bjID-2">
          <mxGeometry x="50" y="100" width="120" height="60" as="geometry" />
        </mxCell>
        <mxCell id="2kTArgQd8L4rqDj1bjID-51" value="" style="edgeStyle=orthogonalEdgeStyle;rounded=0;orthogonalLoop=1;jettySize=auto;html=1;" edge="1" parent="2kTArgQd8L4rqDj1bjID-2" source="2kTArgQd8L4rqDj1bjID-49" target="2kTArgQd8L4rqDj1bjID-50">
          <mxGeometry relative="1" as="geometry" />
        </mxCell>
        <mxCell id="2kTArgQd8L4rqDj1bjID-49" value="查看事件处理结果" style="rounded=1;whiteSpace=wrap;html=1;" vertex="1" parent="2kTArgQd8L4rqDj1bjID-2">
          <mxGeometry x="61" y="850" width="120" height="60" as="geometry" />
        </mxCell>
        <mxCell id="2kTArgQd8L4rqDj1bjID-44" style="edgeStyle=orthogonalEdgeStyle;rounded=0;orthogonalLoop=1;jettySize=auto;html=1;exitX=0;exitY=0.5;exitDx=0;exitDy=0;" edge="1" parent="2kTArgQd8L4rqDj1bjID-2">
          <mxGeometry relative="1" as="geometry">
            <mxPoint x="180" y="879" as="targetPoint" />
            <mxPoint x="345" y="879.59" as="sourcePoint" />
          </mxGeometry>
        </mxCell>
        <mxCell id="2kTArgQd8L4rqDj1bjID-50" value="" style="shape=waypoint;sketch=0;size=6;pointerEvents=1;points=[];fillColor=default;resizable=0;rotatable=0;perimeter=centerPerimeter;snapToPoint=1;rounded=1;" vertex="1" parent="2kTArgQd8L4rqDj1bjID-2">
          <mxGeometry x="111" y="950" width="20" height="20" as="geometry" />
        </mxCell>
        <mxCell id="2kTArgQd8L4rqDj1bjID-3" value="应急响应子系统" style="swimlane;startSize=20;html=1;" vertex="1" parent="2kTArgQd8L4rqDj1bjID-1">
          <mxGeometry x="220" y="20" width="320" height="980" as="geometry" />
        </mxCell>
        <mxCell id="2kTArgQd8L4rqDj1bjID-13" value="" style="edgeStyle=orthogonalEdgeStyle;rounded=0;orthogonalLoop=1;jettySize=auto;html=1;" edge="1" parent="2kTArgQd8L4rqDj1bjID-3" source="2kTArgQd8L4rqDj1bjID-10" target="2kTArgQd8L4rqDj1bjID-12">
          <mxGeometry relative="1" as="geometry" />
        </mxCell>
        <mxCell id="2kTArgQd8L4rqDj1bjID-10" value="接受事件信息" style="rounded=1;whiteSpace=wrap;html=1;" vertex="1" parent="2kTArgQd8L4rqDj1bjID-3">
          <mxGeometry x="75" y="39.999999999999886" width="120" height="60" as="geometry" />
        </mxCell>
        <mxCell id="2kTArgQd8L4rqDj1bjID-15" value="" style="edgeStyle=orthogonalEdgeStyle;rounded=0;orthogonalLoop=1;jettySize=auto;html=1;" edge="1" parent="2kTArgQd8L4rqDj1bjID-3" source="2kTArgQd8L4rqDj1bjID-12">
          <mxGeometry relative="1" as="geometry">
            <mxPoint x="135" y="230" as="targetPoint" />
          </mxGeometry>
        </mxCell>
        <mxCell id="2kTArgQd8L4rqDj1bjID-12" value="记录事件信息" style="whiteSpace=wrap;html=1;rounded=1;" vertex="1" parent="2kTArgQd8L4rqDj1bjID-3">
          <mxGeometry x="75" y="129.9999999999999" width="120" height="60" as="geometry" />
        </mxCell>
        <mxCell id="2kTArgQd8L4rqDj1bjID-25" value="" style="edgeStyle=orthogonalEdgeStyle;rounded=0;orthogonalLoop=1;jettySize=auto;html=1;" edge="1" parent="2kTArgQd8L4rqDj1bjID-3" source="2kTArgQd8L4rqDj1bjID-17" target="2kTArgQd8L4rqDj1bjID-24">
          <mxGeometry relative="1" as="geometry" />
        </mxCell>
        <mxCell id="2kTArgQd8L4rqDj1bjID-17" value="评估事件等级" style="rounded=1;whiteSpace=wrap;html=1;" vertex="1" parent="2kTArgQd8L4rqDj1bjID-3">
          <mxGeometry x="75" y="210" width="120" height="60" as="geometry" />
        </mxCell>
        <mxCell id="2kTArgQd8L4rqDj1bjID-27" value="" style="edgeStyle=orthogonalEdgeStyle;rounded=0;orthogonalLoop=1;jettySize=auto;html=1;" edge="1" parent="2kTArgQd8L4rqDj1bjID-3" source="2kTArgQd8L4rqDj1bjID-24" target="2kTArgQd8L4rqDj1bjID-26">
          <mxGeometry relative="1" as="geometry" />
        </mxCell>
        <mxCell id="2kTArgQd8L4rqDj1bjID-24" value="" style="rhombus;whiteSpace=wrap;html=1;rounded=1;" vertex="1" parent="2kTArgQd8L4rqDj1bjID-3">
          <mxGeometry x="95" y="350" width="80" height="80" as="geometry" />
        </mxCell>
        <mxCell id="2kTArgQd8L4rqDj1bjID-31" value="" style="edgeStyle=orthogonalEdgeStyle;rounded=0;orthogonalLoop=1;jettySize=auto;html=1;" edge="1" parent="2kTArgQd8L4rqDj1bjID-3" source="2kTArgQd8L4rqDj1bjID-26" target="2kTArgQd8L4rqDj1bjID-30">
          <mxGeometry relative="1" as="geometry" />
        </mxCell>
        <mxCell id="2kTArgQd8L4rqDj1bjID-26" value="匹配应急预案" style="whiteSpace=wrap;html=1;rounded=1;" vertex="1" parent="2kTArgQd8L4rqDj1bjID-3">
          <mxGeometry x="75" y="475" width="120" height="60" as="geometry" />
        </mxCell>
        <mxCell id="2kTArgQd8L4rqDj1bjID-33" value="" style="edgeStyle=orthogonalEdgeStyle;rounded=0;orthogonalLoop=1;jettySize=auto;html=1;" edge="1" parent="2kTArgQd8L4rqDj1bjID-3" source="2kTArgQd8L4rqDj1bjID-30" target="2kTArgQd8L4rqDj1bjID-32">
          <mxGeometry relative="1" as="geometry" />
        </mxCell>
        <mxCell id="2kTArgQd8L4rqDj1bjID-30" value="调度应急资源" style="whiteSpace=wrap;html=1;rounded=1;" vertex="1" parent="2kTArgQd8L4rqDj1bjID-3">
          <mxGeometry x="75" y="570" width="120" height="60" as="geometry" />
        </mxCell>
        <mxCell id="2kTArgQd8L4rqDj1bjID-40" value="" style="edgeStyle=orthogonalEdgeStyle;rounded=0;orthogonalLoop=1;jettySize=auto;html=1;" edge="1" parent="2kTArgQd8L4rqDj1bjID-3" source="2kTArgQd8L4rqDj1bjID-32" target="2kTArgQd8L4rqDj1bjID-39">
          <mxGeometry relative="1" as="geometry" />
        </mxCell>
        <mxCell id="2kTArgQd8L4rqDj1bjID-32" value="执行应急方案" style="whiteSpace=wrap;html=1;rounded=1;" vertex="1" parent="2kTArgQd8L4rqDj1bjID-3">
          <mxGeometry x="75" y="660" width="120" height="60" as="geometry" />
        </mxCell>
        <mxCell id="2kTArgQd8L4rqDj1bjID-43" style="edgeStyle=orthogonalEdgeStyle;rounded=0;orthogonalLoop=1;jettySize=auto;html=1;exitX=0.5;exitY=1;exitDx=0;exitDy=0;entryX=0.5;entryY=0;entryDx=0;entryDy=0;" edge="1" parent="2kTArgQd8L4rqDj1bjID-3" source="2kTArgQd8L4rqDj1bjID-39" target="2kTArgQd8L4rqDj1bjID-41">
          <mxGeometry relative="1" as="geometry" />
        </mxCell>
        <mxCell id="2kTArgQd8L4rqDj1bjID-39" value="生成事件报告" style="whiteSpace=wrap;html=1;rounded=1;" vertex="1" parent="2kTArgQd8L4rqDj1bjID-3">
          <mxGeometry x="75" y="750" width="120" height="60" as="geometry" />
        </mxCell>
        <mxCell id="2kTArgQd8L4rqDj1bjID-41" value="" style="rhombus;whiteSpace=wrap;html=1;rounded=1;" vertex="1" parent="2kTArgQd8L4rqDj1bjID-3">
          <mxGeometry x="95" y="840" width="80" height="80" as="geometry" />
        </mxCell>
        <mxCell id="2kTArgQd8L4rqDj1bjID-9" style="edgeStyle=orthogonalEdgeStyle;rounded=0;orthogonalLoop=1;jettySize=auto;html=1;" edge="1" parent="2kTArgQd8L4rqDj1bjID-1" source="2kTArgQd8L4rqDj1bjID-8" target="2kTArgQd8L4rqDj1bjID-10">
          <mxGeometry relative="1" as="geometry">
            <mxPoint x="240" y="169.9999999999999" as="targetPoint" />
          </mxGeometry>
        </mxCell>
        <mxCell id="2kTArgQd8L4rqDj1bjID-18" style="edgeStyle=orthogonalEdgeStyle;rounded=0;orthogonalLoop=1;jettySize=auto;html=1;" edge="1" parent="2kTArgQd8L4rqDj1bjID-1" source="2kTArgQd8L4rqDj1bjID-17" target="2kTArgQd8L4rqDj1bjID-19">
          <mxGeometry relative="1" as="geometry">
            <mxPoint x="580" y="399.9999999999998" as="targetPoint" />
          </mxGeometry>
        </mxCell>
        <mxCell id="2kTArgQd8L4rqDj1bjID-29" style="edgeStyle=orthogonalEdgeStyle;rounded=0;orthogonalLoop=1;jettySize=auto;html=1;" edge="1" parent="2kTArgQd8L4rqDj1bjID-1" source="2kTArgQd8L4rqDj1bjID-22" target="2kTArgQd8L4rqDj1bjID-24">
          <mxGeometry relative="1" as="geometry" />
        </mxCell>
        <mxCell id="2kTArgQd8L4rqDj1bjID-35" value="" style="edgeStyle=orthogonalEdgeStyle;rounded=0;orthogonalLoop=1;jettySize=auto;html=1;" edge="1" parent="2kTArgQd8L4rqDj1bjID-1" source="2kTArgQd8L4rqDj1bjID-32" target="2kTArgQd8L4rqDj1bjID-34">
          <mxGeometry relative="1" as="geometry" />
        </mxCell>
        <mxCell id="2kTArgQd8L4rqDj1bjID-4" value="数据分析与管理子系统" style="swimlane;startSize=20;html=1;" vertex="1" parent="2kTArgQd8L4rqDj1bjID-1">
          <mxGeometry x="540" y="20" width="200" height="980" as="geometry" />
        </mxCell>
        <mxCell id="2kTArgQd8L4rqDj1bjID-21" value="" style="edgeStyle=orthogonalEdgeStyle;rounded=0;orthogonalLoop=1;jettySize=auto;html=1;" edge="1" parent="2kTArgQd8L4rqDj1bjID-4" source="2kTArgQd8L4rqDj1bjID-19" target="2kTArgQd8L4rqDj1bjID-20">
          <mxGeometry relative="1" as="geometry" />
        </mxCell>
        <mxCell id="2kTArgQd8L4rqDj1bjID-19" value="更新数据" style="rounded=1;whiteSpace=wrap;html=1;" vertex="1" parent="2kTArgQd8L4rqDj1bjID-4">
          <mxGeometry x="40" y="179.99999999999977" width="120" height="60" as="geometry" />
        </mxCell>
        <mxCell id="2kTArgQd8L4rqDj1bjID-23" value="" style="edgeStyle=orthogonalEdgeStyle;rounded=0;orthogonalLoop=1;jettySize=auto;html=1;" edge="1" parent="2kTArgQd8L4rqDj1bjID-4" source="2kTArgQd8L4rqDj1bjID-20" target="2kTArgQd8L4rqDj1bjID-22">
          <mxGeometry relative="1" as="geometry" />
        </mxCell>
        <mxCell id="2kTArgQd8L4rqDj1bjID-20" value="储存记录事件" style="whiteSpace=wrap;html=1;rounded=1;" vertex="1" parent="2kTArgQd8L4rqDj1bjID-4">
          <mxGeometry x="40" y="259.9999999999998" width="120" height="60" as="geometry" />
        </mxCell>
        <mxCell id="2kTArgQd8L4rqDj1bjID-36" style="edgeStyle=orthogonalEdgeStyle;rounded=0;orthogonalLoop=1;jettySize=auto;html=1;entryX=0.5;entryY=0;entryDx=0;entryDy=0;" edge="1" parent="2kTArgQd8L4rqDj1bjID-4" source="2kTArgQd8L4rqDj1bjID-22" target="2kTArgQd8L4rqDj1bjID-34">
          <mxGeometry relative="1" as="geometry" />
        </mxCell>
        <mxCell id="2kTArgQd8L4rqDj1bjID-22" value="" style="rhombus;whiteSpace=wrap;html=1;rounded=1;" vertex="1" parent="2kTArgQd8L4rqDj1bjID-4">
          <mxGeometry x="60" y="349.9999999999998" width="80" height="80" as="geometry" />
        </mxCell>
        <mxCell id="2kTArgQd8L4rqDj1bjID-38" value="" style="edgeStyle=orthogonalEdgeStyle;rounded=0;orthogonalLoop=1;jettySize=auto;html=1;" edge="1" parent="2kTArgQd8L4rqDj1bjID-4" source="2kTArgQd8L4rqDj1bjID-34" target="2kTArgQd8L4rqDj1bjID-37">
          <mxGeometry relative="1" as="geometry" />
        </mxCell>
        <mxCell id="2kTArgQd8L4rqDj1bjID-34" value="更新事件状态" style="whiteSpace=wrap;html=1;rounded=1;" vertex="1" parent="2kTArgQd8L4rqDj1bjID-4">
          <mxGeometry x="40" y="660" width="120" height="60" as="geometry" />
        </mxCell>
        <mxCell id="2kTArgQd8L4rqDj1bjID-37" value="分析应急响应效果" style="whiteSpace=wrap;html=1;rounded=1;" vertex="1" parent="2kTArgQd8L4rqDj1bjID-4">
          <mxGeometry x="40" y="850" width="120" height="60" as="geometry" />
        </mxCell>
        <mxCell id="2kTArgQd8L4rqDj1bjID-42" value="" style="edgeStyle=orthogonalEdgeStyle;rounded=0;orthogonalLoop=1;jettySize=auto;html=1;" edge="1" parent="2kTArgQd8L4rqDj1bjID-1" source="2kTArgQd8L4rqDj1bjID-37" target="2kTArgQd8L4rqDj1bjID-41">
          <mxGeometry relative="1" as="geometry" />
        </mxCell>
      </root>
    </mxGraphModel>
  </diagram>
</mxfile>
